<?xml version="1.0" standalone="no"?><!DOCTYPE svg PUBLIC "-//W3C//DTD SVG 1.1//EN" "http://www.w3.org/Graphics/SVG/1.1/DTD/svg11.dtd"><svg t="1568870906981" class="icon" viewBox="0 0 1024 1024" version="1.1" xmlns="http://www.w3.org/2000/svg" p-id="6569" xmlns:xlink="http://www.w3.org/1999/xlink" width="32" height="32"><defs><style type="text/css"></style></defs><path d="M872 845.6v-402.4c0-33.6-27.2-60-60-60H670.4v-60c0-33.6-27.2-60-60-60H328.8c-33.6 0-60 27.2-60 60v523.2H208v40h724v-40H872v-0.8z" fill="#F1F3F7" p-id="6570"></path><path d="M618.4 320H768c35.2 0 64 28.8 64 64v426.4h-42.4V384c0-12-9.6-21.6-21.6-21.6H618.4v448H576V256c0-12-9.6-21.6-21.6-21.6H256c-12 0-21.6 9.6-21.6 21.6v554.4H192V256c0-35.2 28.8-64 64-64h298.4c35.2 0 64 28.8 64 64v64zM128 810.4h768v42.4H128v-42.4z" fill="#A3AAC4" p-id="6571"></path><path d="M298.4 341.6H512v42.4H298.4v-42.4z" fill="#A3AAC4" p-id="6572"></path></svg>