<?xml version="1.0" standalone="no"?><!DOCTYPE svg PUBLIC "-//W3C//DTD SVG 1.1//EN" "http://www.w3.org/Graphics/SVG/1.1/DTD/svg11.dtd"><svg t="1568947707229" class="icon" viewBox="0 0 1024 1024" version="1.1" xmlns="http://www.w3.org/2000/svg" p-id="2039" xmlns:xlink="http://www.w3.org/1999/xlink" width="16" height="16"><defs><style type="text/css"></style></defs><path d="M887.73242188 512L512 136.26757812C498.816406 123.08398412 479.04101537 116.4921875 459.26562475 116.4921875l-263.67187475 13.183594c-32.95898463 0-59.32617188 26.36718725-65.9179685 65.9179685l-13.183594 263.67187475c0 19.77539063 6.59179662 39.55078125 19.77539062 52.73437525L512 887.73242188c26.36718725 26.36718725 65.9179685 26.36718725 92.2851565-1e-8l283.44726538-283.44726537c26.36718725-26.36718725 26.36718725-65.9179685 0-92.2851565z m-32.95898463 65.9179685L577.9179685 854.77343725c-6.59179662 6.59179662-26.36718725 6.59179662-32.95898387 0L169.22656275 479.04101537c-6.59179662 0-6.59179662-6.59179662-6.59179738-13.18359324l13.183594-263.67187551c0-13.183594 13.183594-19.77539063 19.77539063-19.77539062l263.67187475-13.18359325c6.59179662 0 13.183594 0 19.77539062 6.59179663l375.73242188 375.73242187c13.183594 0 13.183594 13.183594 0 26.36718725z" fill="#A3AAC4" p-id="2040"></path><path d="M268.10351588 268.10351588c-32.95898463 32.95898463-32.95898463 92.2851565 0 131.83593699 32.95898463 32.95898463 92.2851565 32.95898463 131.83593699 0s32.95898463-92.2851565 0-131.83593699c-39.55078125-39.55078125-98.87695313-39.55078125-131.83593699 0z m98.87695312 98.87695312c-19.77539063 19.77539063-52.73437525 19.77539063-72.50976587 0-19.77539063-13.183594-19.77539063-39.55078125-13.18359401-59.32617187s26.36718725-32.95898463 46.14257863-32.95898463 39.55078125 13.183594 52.7343745 32.95898463c6.59179662 19.77539063 0 46.14257787-13.18359325 59.32617187z" fill="#A3AAC4" p-id="2041"></path></svg>