<?xml version="1.0" standalone="no"?><!DOCTYPE svg PUBLIC "-//W3C//DTD SVG 1.1//EN" "http://www.w3.org/Graphics/SVG/1.1/DTD/svg11.dtd"><svg t="1569297776080" class="icon" viewBox="0 0 1024 1024" version="1.1" xmlns="http://www.w3.org/2000/svg" p-id="1940" xmlns:xlink="http://www.w3.org/1999/xlink" width="16" height="16"><defs><style type="text/css"></style></defs><path d="M216.192 557.44a348.928 348.928 0 1 0 697.92 0 348.928 348.928 0 0 0-697.92 0" fill="#F1F3F7" p-id="1941"></path><path d="M313.472 198.912A380.8 380.8 0 0 0 127.36 527.744a384 384 0 0 0 383.552 383.552 384 384 0 0 0 383.552-383.552 382.4 382.4 0 0 0-176.128-322.688s9.856-12.288 19.328-26.88c9.472-14.784 14.976-26.368 14.976-26.368a445.312 445.312 0 0 1 205.184 375.936c0 246.4-200.512 446.912-446.912 446.912C264.448 974.656 64 774.144 64 527.744A449.536 449.536 0 0 1 280.896 144.512" fill="#A3AAC4" p-id="1942"></path><path d="M471.04 625.728h79.68V0H471.04z" fill="#A3AAC4" p-id="1943"></path></svg>