<?xml version="1.0" standalone="no"?><!DOCTYPE svg PUBLIC "-//W3C//DTD SVG 1.1//EN" "http://www.w3.org/Graphics/SVG/1.1/DTD/svg11.dtd"><svg t="1568868339920" class="icon" viewBox="0 0 1024 1024" version="1.1" xmlns="http://www.w3.org/2000/svg" p-id="6213" xmlns:xlink="http://www.w3.org/1999/xlink" width="32" height="32"><defs><style type="text/css"></style></defs><path d="M784.896 273.408c-16.384 15.36-38.912 25.088-63.488 25.088-25.088 0-47.616-9.728-64-25.6h-19.456c-17.92 15.872-42.496 25.6-70.144 25.6-27.648 0-52.224-9.728-70.144-25.6h-19.456c-16.384 15.872-38.912 25.6-64 25.6s-47.104-9.728-63.488-25.088c-43.52 4.096-77.824 40.448-77.824 84.992v435.2c0 47.104 38.4 85.504 85.504 85.504h418.304c47.104 0 85.504-38.4 85.504-85.504V358.4c-0.512-44.544-34.304-80.896-77.312-84.992z" fill="#F1F4F9" p-id="6214"></path><path d="M776.704 298.496v435.2c0 28.16-23.04 51.2-51.2 51.2H307.2c-28.16 0-51.2-23.04-51.2-51.2v-435.2c0-23.04 15.36-42.496 36.352-49.152 22.528 14.848 50.176 23.552 78.848 23.552 26.112 0 51.2-6.656 72.704-19.456 21.504 12.8 46.592 19.456 72.704 19.456s51.2-6.656 72.704-19.456c21.504 12.8 46.592 19.456 72.704 19.456 28.672 0 56.32-8.192 78.848-23.552 20.992 6.656 35.84 26.624 35.84 49.152z m-115.2-59.392c-27.648 0-52.224-9.728-70.144-25.6h-5.12c-17.92 15.872-42.496 25.6-70.144 25.6-27.648 0-52.224-9.728-70.144-25.6h-5.12c-17.92 15.872-42.496 25.6-70.144 25.6-27.136 0-52.224-9.728-69.632-25.6-44.544 3.072-79.36 39.936-79.36 84.992v435.2c0 47.104 38.4 85.504 85.504 85.504h418.304c47.104 0 85.504-38.4 85.504-85.504v-435.2c0-45.056-35.328-81.92-79.36-84.992-18.432 15.872-43.008 25.6-70.144 25.6z" fill="#A3AAC3" p-id="6215"></path><path d="M538.112 457.216c-5.12-5.632-6.656-13.824-2.56-20.48l25.6-44.544c4.608-8.192 14.848-11.264 23.04-6.656 8.192 4.608 11.264 14.848 6.656 23.04l-25.6 44.544c-0.512 1.024-1.536 2.56-2.56 3.584h26.112c14.336 0 25.6 11.264 25.6 25.6s-11.264 25.6-25.6 25.6h-51.2v34.304h51.2c14.336 0 25.6 11.264 25.6 25.6s-11.264 25.6-25.6 25.6h-51.2v42.496c0 9.216-7.68 16.896-16.896 17.408-9.216 0-16.896-7.68-17.408-16.896V593.92h-51.2c-14.336 0-25.6-11.264-25.6-25.6s11.264-25.6 25.6-25.6h51.2v-34.304h-51.2c-14.336 0-25.6-11.264-25.6-25.6s11.264-25.6 25.6-25.6h26.112c-1.024-1.024-2.048-2.048-2.56-3.584l-25.6-44.544c-4.608-8.192-1.536-18.432 6.656-23.04 8.192-4.608 18.432-2.048 23.04 6.144l25.6 44.544c3.584 6.656 2.56 14.848-2.56 20.48h35.328z" fill="#A3AAC3" p-id="6216"></path></svg>