<?xml version="1.0" standalone="no"?><!DOCTYPE svg PUBLIC "-//W3C//DTD SVG 1.1//EN" "http://www.w3.org/Graphics/SVG/1.1/DTD/svg11.dtd"><svg t="1568870925594" class="icon" viewBox="0 0 1024 1024" version="1.1" xmlns="http://www.w3.org/2000/svg" p-id="6687" xmlns:xlink="http://www.w3.org/1999/xlink" width="32" height="32"><defs><style type="text/css"></style></defs><path d="M366.592 779.776l201.728 136.192 200.192-136.704c27.136-21.504 47.104-48.64 62.464-79.36 15.36-31.232 21.504-64 21.504-97.792V258.56l-287.744-55.296-288.768 55.296v343.04c0 34.304 8.704 67.072 24.064 98.304 15.872 31.232 38.912 57.856 66.56 79.872z" fill="#F1F4F9" p-id="6688"></path><path d="M801.792 196.608L517.12 141.312c-2.56-1.024-4.608-1.024-7.168 0L224.256 196.608c-8.704 1.536-15.36 9.728-15.36 17.408v334.336c0 37.376 8.704 73.728 25.6 107.008 16.896 33.792 40.96 62.976 71.168 87.04l1.024 1.024 198.656 134.144c3.072 2.56 6.144 3.072 10.24 3.072s7.168-1.024 10.24-3.072l196.608-134.144 1.024-1.024c29.696-24.064 52.736-52.736 68.608-86.528 16.896-33.792 23.04-69.632 23.04-107.008V215.04c0-8.704-4.608-16.384-13.312-18.432z m-22.016 353.792c0 31.744-6.144 62.464-19.968 91.136-13.824 28.672-32.768 53.76-58.368 73.728l-186.368 126.976-187.904-126.976c-25.6-19.968-46.592-45.056-60.928-73.728-14.336-28.672-22.528-59.392-22.528-91.136V230.4L512 178.176l267.776 51.2v321.024z" fill="#A3AAC3" p-id="6689"></path><path d="M485.376 617.472L672.768 430.08c7.168-7.168 7.168-18.432 0-25.6s-18.432-7.168-25.6 0l-174.592 174.592-89.6-89.6c-7.168-7.168-18.432-7.168-25.6 0s-7.168 18.432 0 25.6l102.4 102.4c3.072 3.072 8.192 5.632 12.8 5.632 5.12 0 9.728-1.536 12.8-5.632z" fill="#A3AAC3" p-id="6690"></path></svg>