<?xml version="1.0" standalone="no"?><!DOCTYPE svg PUBLIC "-//W3C//DTD SVG 1.1//EN" "http://www.w3.org/Graphics/SVG/1.1/DTD/svg11.dtd"><svg t="1569201421634" class="icon" viewBox="0 0 1024 1024" version="1.1" xmlns="http://www.w3.org/2000/svg" p-id="2074" xmlns:xlink="http://www.w3.org/1999/xlink" width="16" height="16"><defs><style type="text/css"></style></defs><path d="M939.890163 232.155263a287.158652 287.158652 0 0 0-202.60557-83.163369h-0.877713c-36.790831 0-72.777091 6.948566-106.934781 20.479985a283.062655 283.062655 0 0 0-94.719932 61.878813L267.342072 495.615646a159.5976 159.5976 0 0 0-47.615966 114.834204c0.146286 43.373683 17.188559 84.114226 48.274251 114.834203 30.939406 30.646835 72.045663 47.542823 115.858203 47.615966h0.365714c43.739397 0 84.699368-16.822845 115.565632-47.030823l234.568975-231.935835a40.009114 40.009114 0 0 0 0-57.417101 41.106256 41.106256 0 0 0-57.855958 0l-234.642119 231.862691c-15.286846 15.213703-35.839974 23.405698-57.782815 23.405698H384.004846a82.870798 82.870798 0 0 1-58.294816-23.844555c-15.506275-15.359989-24.137126-35.839974-24.137125-57.63653a78.994229 78.994229 0 0 1 23.625126-57.124531l267.410094-264.411239a203.044426 203.044426 0 0 1 143.94504-58.514244h0.585143c54.857104 0 106.422781 21.211413 145.115325 59.245672 38.546258 38.253687 59.903957 89.161079 59.9771 143.359897a198.509572 198.509572 0 0 1-59.099387 142.62847l-283.647797 280.795228A302.079784 302.079784 0 0 1 386.19913 942.810755h-0.804571a304.56664 304.56664 0 0 1-214.60099-87.917651 296.667217 296.667217 0 0 1-88.795365-212.114135 293.741504 293.741504 0 0 1 87.698223-211.382706L535.849309 69.412522a40.009114 40.009114 0 0 0 0-57.417102 41.179399 41.179399 0 0 0-57.929102-0.073143L111.694183 374.052304A374.491161 374.491161 0 0 0 0.00512 643.071541c0.146286 49.444536 9.65485 97.718787 28.525694 143.286754a383.85344 383.85344 0 0 0 211.821563 209.554136 391.094578 391.094578 0 0 0 144.822754 28.086838h1.023999a385.608867 385.608867 0 0 0 270.920949-110.445636l283.647798-280.575799A281.087799 281.087799 0 0 0 1024.004389 432.566548a281.819227 281.819227 0 0 0-84.114226-200.411285z" fill="#576493" p-id="2075"></path></svg>