<?xml version="1.0" standalone="no"?><!DOCTYPE svg PUBLIC "-//W3C//DTD SVG 1.1//EN" "http://www.w3.org/Graphics/SVG/1.1/DTD/svg11.dtd"><svg t="1568870854380" class="icon" viewBox="0 0 1024 1024" version="1.1" xmlns="http://www.w3.org/2000/svg" p-id="6331" xmlns:xlink="http://www.w3.org/1999/xlink" width="32" height="32"><defs><style type="text/css"></style></defs><path d="M364.1947983 651.18875497h385.08888873c89.47848533 0 166.36370237 63.62914512 182.93379224 151.11921966l7.95364313 40.43101931c9.94205392 51.03587682-23.86092942 100.08334285-74.23400263 109.36259317-5.96523235 1.3256072-11.93046471 1.98841078-17.89569707 1.98841079H266.09986623c-51.69868042 0-93.4553069-41.75662649-93.4553069-93.45530689 0-5.96523235 0.66280359-11.93046471 1.98841078-17.89569707l7.95364314-40.43101931c15.90728628-87.49007455 92.12969971-151.11921968 181.60818505-151.11921966zM522.60485751 162.03970181H591.53643141c103.39736083 0 187.57341741 84.17605657 187.57341739 187.57341739v67.6059667c0 103.39736083-84.17605657 187.57341741-187.57341739 187.57341741h-68.9315739c-103.39736083 0-187.57341741-84.17605657-187.57341739-187.57341741V349.6131192c0.66280359-103.39736083 84.17605657-187.57341741 187.57341739-187.57341739z" fill="#F1F4F9" p-id="6332"></path><path d="M315.81013586 622.68820037c-66.9431631 0-124.60707587 47.72185885-137.86314777 113.33941476l-7.29083956 37.77980492c-5.30242877 26.51214381 12.5932683 53.02428761 39.10541212 58.32671637 3.31401797 0.66280359 5.96523235 0.66280359 9.27925034 0.66280358h585.25557443c27.17494739 0 49.71026963-21.87251863 49.71026963-49.71026962 0-3.31401797 0-6.62803595-0.66280358-9.27925033l-7.29083956-37.77980492c-12.5932683-65.61755591-70.25718107-113.33941475-137.86314777-113.33941476H315.81013586z m0-44.40784087h392.37972828c88.15287813 0 164.37529157 62.30353794 180.94538146 149.13080889l7.29083954 37.77980492c9.94205392 51.03587682-23.19812583 100.08334285-74.23400265 110.02539679-5.96523235 1.3256072-11.93046471 1.98841078-17.89569707 1.98841079H219.70361458c-51.69868042 0-93.4553069-41.75662649-93.4553069-93.45530692 0-5.96523235 0.66280359-11.93046471 1.98841077-17.89569706l7.29083956-37.77980491c15.90728628-87.49007455 92.12969971-149.79361248 180.28257785-149.7936125z" fill="#A3AAC3" p-id="6333"></path><path d="M412.57946075 699.57341741h187.57341738c21.87251863 0 33.14017975 11.26766112 33.14017977 33.14017974s-11.26766112 33.14017975-33.14017977 33.14017976H412.57946075c-21.87251863 0-33.14017975-11.26766112-33.14017977-33.14017976s11.26766112-33.14017975 33.14017977-33.14017974zM478.19701665 136.1903616C399.32338883 136.1903616 335.03144012 200.48231031 335.03144012 279.35593813V346.29910124c0 78.87362782 64.29194871 143.16557653 143.16557653 143.16557653H545.14017975c78.87362782 0 143.16557653-64.29194871 143.16557654-143.16557653V279.35593813c0-78.87362782-64.29194871-143.16557653-143.16557654-143.16557653H478.19701665z m0-43.74503728H545.14017975c103.39736083 0 187.57341741 84.17605657 187.5734174 187.57341741v66.9431631c0 103.39736083-84.17605657 187.57341741-187.5734174 187.5734174H478.19701665c-103.39736083 0-187.57341741-84.17605657-187.5734174-187.5734174V279.35593813c0.66280359-103.39736083 84.17605657-186.91061381 187.5734174-186.91061381z" fill="#A3AAC3" p-id="6334"></path><path d="M300.56565317 301.89126036v-47.05905524h35.12859054c23.19812583 0 46.39625165 7.29083955 65.61755592 19.88410785l1.98841077 1.32560719c8.61644674 5.96523235 19.88410785 6.62803595 28.50055459 1.32560719l37.11700132-19.88410785 39.76821572-22.53532224c33.80298335-19.22130427 74.89680624-19.88410785 109.36259317-3.31401797l30.48896539 15.24448268c9.94205392 4.63962516 20.54691145 7.29083955 31.15176896 7.29083954h41.0938229v47.05905526h-41.0938229c-17.89569707 0-35.79139413-3.97682157-51.69868041-11.93046472l-30.48896537-15.24448268c-20.54691145-10.60485751-45.07064446-9.27925033-65.61755592 1.98841079l-39.7682157 22.53532224-37.11700132 19.88410784c-24.52373301 13.2560719-54.34989479 11.93046471-77.54802062-3.97682157l-1.9884108-1.32560719c-11.93046471-7.95364315-25.18653662-11.93046471-39.7682157-11.93046471l-35.12859054 0.66280359z" fill="#A3AAC3" p-id="6335"></path></svg>